<?xml version="1.0" encoding="utf-8"?>
<!-- Generator: Adobe Illustrator 16.0.0, SVG Export Plug-In . SVG Version: 6.00 Build 0)  -->
<!DOCTYPE svg PUBLIC "-//W3C//DTD SVG 1.1//EN" "http://www.w3.org/Graphics/SVG/1.1/DTD/svg11.dtd">
<svg version="1.1" id="webberin-logo" xmlns="http://www.w3.org/2000/svg" xmlns:xlink="http://www.w3.org/1999/xlink" x="0px" y="0px"width="50px" height="50px" viewBox="0 0 50 50" enable-background="new 0 0 50 50" xml:space="preserve"><path fill="#000000" d="M48.155,15.505c-1.376-2.253-2.768-4.475-4.937-6.048c-1.939-1.405-4.243-1.561-6.411-2.34c-0.004-0.009-0.004-0.013-0.008-0.022c-0.444-0.207-0.848-0.616-1.183-1.036c-2.304-1.792-4.366-3.883-7.125-5.001c-2.173-0.883-4.479-0.536-6.77-0.19c-0.496,0.163-0.991,0.315-1.499,0.417c-0.417,0.084-0.836,0.126-1.254,0.161c-0.267,0.045-0.609,0.121-0.916,0.112c-0.06,0.007-0.122,0.014-0.181,0.019c0.007,0.077,0.023,0.156,0.05,0.208c0.002,0.002,0.002,0.005,0.005,0.008c0.007,0.01,0.012,0.02,0.019,0.028c0.006,0.008,0.011,0.02,0.018,0.026c0.548,0.449,1.125,0.841,1.776,1.093c-1.184,0.36-2.343,0.805-3.437,1.222c0-0.003-0.002-0.003-0.004-0.003C16,4.301,15.701,4.443,15.414,4.618c-0.554,0.338-1.04,0.771-1.599,1.104c0.004,0.062,0.013,0.117,0.029,0.165c0.08,0.03,0.163,0.06,0.243,0.089c0.003,0,0.003,0,0.005,0c0.515,0.22,1.008,0.31,1.551,0.379c2.871,1.15,6.011,1.89,8.952,2.902c2.077,0.717,5.478,0.725,7.081,2.39c-0.055,0.368-0.058,0.743-0.044,0.909c0.055,0.766-0.134,1.507-0.235,2.266c-0.123,0.942-0.104,1.835,0.074,2.771c0.004,0.022,0.014,0.052,0.021,0.082c-3.28,1.959-7.5,2.444-11.17,3.168c-3.448,0.683-6.889,1.959-9.961,3.652c-2.979,1.639-5.405,4.024-6.704,7.187c-0.779,1.891-0.802,4.012-0.68,6.02c0.075,1.26,0.279,2.516,0.425,3.771c0.032,0.271,0.087,1.09,0.182,1.424c-0.026,0.006-0.05,0.01-0.074,0.015c-0.087,0.014-0.156,0.072-0.21,0.161c-0.53-0.089-1.057-0.18-1.572-0.354c-0.231-0.078-0.241,0.366-0.245,0.498c-0.031,1.551,0.3,3.236,1.479,4.341c1.271,1.192,3.229,1.786,4.954,1.557c0.087-0.009,0.145-0.1,0.18-0.219c0.058,0,0.115,0.006,0.175,0.006c4.169,0.608,8.619-0.147,12.752-0.565c0.715-0.073,1.437-0.088,2.165-0.069c2.089-0.725,4.347-0.205,6.531-0.344c2.201-0.141,6.646-0.6,7.595-3.096c0.031-0.084,0.092-0.134,0.153-0.166c-0.071-0.169-0.021-0.398,0.197-0.436c1.216-0.206,2.402-1.104,1.511-2.363c-0.085-0.119-0.069-0.232-0.006-0.323c-0.312-0.273-0.692-0.442-1.086-0.604c-0.998-0.401-2.021-0.65-3.071-0.777c-0.059-0.079-0.113-0.156-0.169-0.238c-0.037-0.06-0.083-0.119-0.123-0.185c0.068-0.045,0.129-0.163,0.164-0.392c0.551-3.571,5.013-5.409,7.017-8.164c0.725-0.998,1.081-2.19,1.126-3.408c0.046-1.19-0.531-3.009-0.406-4.466c-0.01-0.06-0.01-0.122,0-0.184c0.018-0.142,0.054-0.279,0.096-0.411c0.086-0.327,0.229-0.62,0.444-0.872c0.013-0.023,0.032-0.048,0.046-0.073c0.035-0.182,0.168-0.344,0.401-0.354c1.353-0.06,2.467-0.836,3.402-1.846c0.521-0.813,1.1-2.066,1.117-3.121C48.223,16.224,48.254,15.669,48.155,15.505z M30.521,42.101c-0.585,0.179-1.21,0.241-1.814,0.311c-1.061,0.115-2.121,0.207-3.178,0.316c0.438-0.76,1.117-1.421,1.786-1.91c0.488-0.354,1.045-0.619,1.626-0.78c0.778,0.12,1.568,0.396,2.255,0.784c0.192,0.257,0.348,0.535,0.473,0.835C31.279,41.743,30.898,41.986,30.521,42.101zM41.213,13.278c-0.605,0.728-1.889,0.499-2.269-0.341c-0.12-0.27,0.031-0.521,0.242-0.621c0.192-0.115,0.467-0.142,0.697-0.133c0.052,0.002,0.109,0.011,0.165,0.016h0.004c0.014,0,0.022,0.002,0.031,0.002c0.415,0.039,0.841,0.149,1.129,0.453C41.387,12.843,41.367,13.087,41.213,13.278z"/></svg>